<?xml version="1.0" standalone="no"?>
<!DOCTYPE svg PUBLIC "-//W3C//DTD SVG 20010904//EN"
 "http://www.w3.org/TR/2001/REC-SVG-20010904/DTD/svg10.dtd">
<svg version="1.0" xmlns="http://www.w3.org/2000/svg"
 width="459.000000pt" height="459.000000pt" viewBox="0 0 459.000000 459.000000"
 preserveAspectRatio="xMidYMid meet">
<metadata>
Created by potrace 1.14, written by Peter Selinger 2001-2017
</metadata>
<g transform="translate(0.000000,459.000000) scale(0.100000,-0.100000)"
fill="#000000" stroke="none">
<path d="M2230 4541 c-49 -6 -51 -7 -25 -13 36 -9 173 -8 194 0 11 5 7 8 -14
13 -36 8 -81 8 -155 0z"/>
<path d="M2065 4523 c-65 -7 -208 -50 -320 -96 -115 -46 -155 -72 -50 -32 132
51 250 87 360 110 96 20 101 29 10 18z"/>
<path d="M2438 4523 c12 -2 30 -2 40 0 9 3 -1 5 -23 4 -22 0 -30 -2 -17 -4z"/>
<path d="M2502 4515 c3 -3 38 -12 79 -19 41 -8 105 -23 143 -35 88 -26 99 -20
14 8 -109 35 -254 63 -236 46z"/>
<path d="M2285 4479 c-10 -15 3 -25 16 -12 7 7 7 13 1 17 -6 3 -14 1 -17 -5z"/>
<path d="M2180 4470 c0 -5 5 -10 10 -10 6 0 10 -10 10 -22 0 -18 -2 -20 -10
-8 -5 8 -11 12 -14 10 -2 -3 -6 -62 -8 -133 l-3 -127 37 0 c43 0 52 9 39 43
-12 32 -17 205 -7 235 8 20 5 22 -23 22 -17 0 -31 -4 -31 -10z"/>
<path d="M2145 4460 c3 -5 10 -10 16 -10 5 0 9 5 9 10 0 6 -7 10 -16 10 -8 0
-12 -4 -9 -10z"/>
<path d="M2443 4447 c-6 -13 -14 -49 -18 -80 -4 -32 -11 -57 -15 -57 -4 0 -23
30 -41 68 -41 82 -38 77 -45 70 -3 -4 -1 -16 6 -27 8 -16 8 -21 -3 -21 -7 0
-18 5 -25 12 -7 7 -12 8 -12 3 -1 -41 -12 -185 -15 -207 -4 -24 -1 -28 18 -28
23 0 23 2 19 85 -3 47 -2 85 1 85 2 0 23 -38 46 -85 35 -71 46 -85 66 -85 l24
0 3 143 c2 78 3 143 2 145 0 1 -6 -8 -11 -21z m-69 -103 c10 -25 -1 -29 -14
-5 -6 12 -7 21 -1 21 5 0 12 -7 15 -16z"/>
<path d="M1975 4443 c-75 -17 -124 -36 -119 -44 3 -6 13 -9 22 -7 10 2 23 -3
30 -12 11 -13 11 -11 2 8 -14 28 4 37 60 29 26 -3 38 -1 34 5 -4 6 0 14 7 19
12 7 11 9 -1 8 -8 -1 -24 -3 -35 -6z"/>
<path d="M2665 4430 c11 -5 29 -8 40 -8 16 0 15 2 -5 8 -34 11 -60 11 -35 0z"/>
<path d="M2821 4436 c7 -8 289 -124 289 -120 0 7 -96 52 -187 88 -84 34 -113
42 -102 32z"/>
<path d="M2738 4413 c6 -2 12 -11 12 -18 0 -7 7 -16 16 -19 8 -3 12 -2 9 3 -3
5 0 13 7 17 13 8 -14 23 -42 23 -10 -1 -11 -2 -2 -6z"/>
<path d="M2020 4396 c0 -8 5 -18 10 -21 6 -3 10 3 10 14 0 12 -4 21 -10 21 -5
0 -10 -6 -10 -14z"/>
<path d="M1951 4368 c-1 -39 -16 -51 -24 -20 -11 40 -5 -48 7 -110 8 -42 9
-73 3 -83 -14 -26 -2 -28 47 -10 l46 18 -19 26 c-10 14 -24 53 -31 86 -6 33
-16 76 -20 95 l-8 35 -1 -37z"/>
<path d="M2700 4390 c0 -5 -10 -35 -21 -66 -19 -51 -23 -56 -35 -40 -11 16
-14 14 -23 -21 -6 -21 -11 -44 -11 -51 0 -7 -7 -23 -16 -37 -14 -22 -14 -24 3
-33 10 -5 30 -12 46 -16 25 -6 27 -4 27 26 0 29 19 142 36 221 4 15 4 27 0 27
-3 0 -6 -4 -6 -10z"/>
<path d="M1745 4370 c-11 -4 -46 -18 -77 -30 -61 -23 -66 -28 -46 -48 16 -16
68 -166 75 -214 3 -21 7 -38 9 -38 8 0 159 63 167 70 4 4 1 22 -7 41 l-15 34
-15 -37 c-14 -32 -21 -38 -47 -38 -25 0 -32 6 -45 35 -18 45 -18 45 12 45 22
0 24 3 18 23 -14 46 -21 52 -33 29 -15 -28 -25 -28 -40 1 -6 12 -10 15 -7 5 7
-24 -5 -30 -26 -11 -23 21 -25 83 -2 83 8 0 13 -4 10 -9 -4 -5 -3 -17 1 -28 6
-14 9 -11 13 17 4 26 11 36 30 40 31 8 50 2 50 -15 0 -15 28 -40 36 -32 9 9
-16 87 -29 86 -7 0 -21 -4 -32 -9z"/>
<path d="M2852 4329 c-3 -40 -52 -173 -79 -214 -7 -11 -13 -23 -13 -27 0 -12
132 -69 154 -66 21 3 65 73 53 84 -3 3 -18 -3 -33 -15 -51 -40 -90 -19 -78 43
6 37 25 59 32 38 6 -20 19 -13 32 18 14 34 8 49 -14 31 -25 -21 -28 6 -6 49
15 30 26 40 44 40 27 0 36 -16 36 -66 0 -44 16 -43 35 2 18 44 19 64 3 64 -7
0 -40 14 -73 30 -81 40 -89 39 -93 -11z"/>
<path d="M1840 4340 c0 -11 5 -20 10 -20 6 0 10 9 10 20 0 11 -4 20 -10 20 -5
0 -10 -9 -10 -20z"/>
<path d="M2640 4335 c0 -14 2 -25 4 -25 2 0 6 11 8 25 3 14 1 25 -3 25 -5 0
-9 -11 -9 -25z"/>
<path d="M2782 4340 c0 -14 2 -19 5 -12 2 6 2 18 0 25 -3 6 -5 1 -5 -13z"/>
<path d="M1475 4304 c-38 -20 -79 -44 -90 -53 -11 -10 -37 -28 -57 -40 -134
-80 -376 -314 -489 -471 -56 -80 -165 -278 -156 -286 2 -2 14 15 27 39 64 117
159 269 201 322 105 135 389 379 516 445 65 33 139 80 127 80 -5 0 -40 -16
-79 -36z"/>
<path d="M3160 4283 c25 -15 47 -30 50 -34 3 -3 21 -15 41 -25 40 -22 197
-156 248 -212 18 -20 58 -64 88 -96 99 -108 142 -188 112 -207 -23 -14 -32
-10 -26 13 11 39 -36 106 -174 249 -65 67 -157 145 -163 138 -2 -2 -8 -18 -13
-35 -13 -37 -130 -204 -143 -204 -24 0 -5 -30 55 -89 l65 -64 35 39 c19 21 34
42 35 46 0 4 -20 5 -45 1 -57 -7 -79 8 -71 50 11 52 56 82 56 37 0 -27 6 -25
35 8 31 34 31 42 0 42 -15 0 -25 6 -25 14 0 19 70 80 80 69 15 -17 28 -71 22
-98 -3 -18 0 -32 10 -39 8 -6 17 -32 20 -58 6 -52 1 -61 -71 -112 -23 -17 -41
-36 -41 -44 0 -19 67 -110 90 -122 36 -19 71 -11 108 26 l36 36 18 -22 c10
-12 18 -25 18 -29 -1 -22 -75 -73 -106 -73 -36 0 -39 -15 -9 -59 l26 -40 31
26 c17 14 37 24 45 21 8 -3 12 -2 9 3 -3 5 1 14 8 21 12 9 17 7 26 -10 12 -23
6 -40 -16 -40 -8 0 -14 -6 -14 -13 0 -7 -14 -26 -30 -42 -24 -23 -30 -37 -28
-60 2 -19 9 -30 18 -30 10 0 20 -18 28 -50 7 -27 18 -52 24 -56 6 -4 25 3 42
16 46 35 192 105 219 105 35 0 37 7 15 61 -30 72 -77 89 -78 28 0 -22 -32 -48
-77 -64 -37 -13 -39 -12 -55 13 -10 17 -14 38 -11 55 5 26 9 28 36 23 32 -7
90 22 101 50 16 41 -14 134 -65 205 -26 36 -24 43 6 23 14 -9 25 -24 25 -34 0
-10 6 -23 14 -29 8 -7 17 -24 21 -39 4 -15 10 -29 14 -32 14 -10 74 -124 96
-184 13 -34 34 -86 48 -116 29 -66 40 -117 26 -125 -5 -4 -19 15 -31 42 -11
26 -27 52 -34 56 -8 4 -14 15 -14 22 0 8 -5 15 -11 15 -6 0 -9 -6 -6 -14 4
-10 -6 -16 -31 -20 -55 -9 -60 -16 -79 -92 -19 -81 -27 -94 -59 -94 -33 0 -42
36 -15 64 41 44 18 61 -38 29 -29 -17 -42 -43 -22 -43 5 0 11 -13 14 -28 9
-44 38 -73 74 -74 67 -2 113 58 113 147 0 49 18 67 49 48 24 -15 25 -49 2 -94
-27 -51 -27 -52 9 -47 24 4 30 1 30 -13 0 -10 5 -21 10 -24 15 -9 12 -25 -5
-25 -29 0 -15 -17 25 -30 22 -7 40 -16 40 -20 0 -4 -10 -19 -23 -34 -18 -20
-25 -24 -35 -14 -9 9 -12 9 -12 0 0 -7 5 -12 10 -12 18 0 10 -29 -10 -35 -21
-7 -26 -20 -11 -30 6 -3 14 2 19 11 9 15 10 15 16 -4 8 -25 26 -30 26 -7 0 8
5 15 11 15 6 0 8 -8 5 -17 -3 -10 1 -29 8 -42 13 -24 14 -24 25 -3 14 26 14
72 1 72 -5 0 -10 6 -10 13 0 8 7 14 15 14 14 0 19 -10 16 -29 0 -5 5 -8 13 -8
13 0 19 -19 32 -120 3 -25 11 -56 17 -69 9 -19 9 -25 0 -28 -10 -4 -9 -13 2
-41 12 -28 13 -37 3 -43 -23 -15 -38 12 -38 70 0 31 -4 61 -8 67 -11 17 -60
26 -65 11 -2 -7 -14 0 -31 21 -15 17 -34 32 -42 32 -12 0 -13 8 -8 35 5 30 4
34 -10 29 -9 -3 -17 -1 -17 5 -2 16 -4 23 -17 51 -11 25 -11 25 -11 -8 -1 -18
6 -49 14 -69 11 -25 12 -40 5 -47 -5 -5 -10 -20 -10 -33 0 -19 -5 -23 -28 -23
-32 0 -62 -27 -62 -55 0 -10 10 -29 22 -42 l21 -23 -27 -25 c-22 -21 -27 -31
-21 -53 8 -31 21 -42 53 -42 22 0 22 -1 7 -30 -31 -60 -11 -115 34 -90 22 11
31 4 31 -26 0 -23 17 -34 54 -34 28 0 46 18 46 46 0 20 4 22 34 17 42 -7 48 3
37 59 -7 40 -5 47 16 66 14 12 27 22 29 22 2 0 4 -34 4 -76 0 -47 -4 -73 -10
-69 -16 10 -12 -11 5 -25 12 -10 14 -34 9 -143 -3 -72 -10 -141 -14 -152 -4
-12 -11 -47 -15 -78 -5 -36 -12 -57 -20 -57 -16 0 -27 -42 -15 -54 13 -13 13
-56 0 -56 -5 0 -10 5 -10 10 0 6 -4 10 -10 10 -16 0 -12 -30 5 -36 17 -7 19
-32 5 -54 -9 -13 -12 -13 -24 2 -15 21 -26 13 -26 -18 0 -13 -10 -30 -22 -38
-32 -23 -12 -34 24 -13 17 10 33 15 36 12 4 -3 -5 -38 -18 -77 -16 -48 -30
-73 -43 -76 -13 -3 -17 -11 -13 -25 2 -11 -2 -26 -10 -34 -8 -8 -12 -23 -9
-34 9 -29 -53 -161 -147 -311 -26 -43 -48 -80 -48 -82 0 -2 -29 -44 -65 -93
-56 -75 -258 -283 -276 -283 -3 0 -4 12 -2 27 2 18 -6 42 -22 68 -25 38 -26
38 -19 10 13 -56 10 -69 -18 -83 -33 -16 -35 -25 -9 -51 19 -19 19 -20 -32
-64 -29 -24 -65 -52 -82 -63 -16 -10 -53 -35 -81 -56 -63 -45 -237 -137 -282
-148 -36 -9 -52 3 -25 19 10 6 14 10 8 11 -20 0 -32 -16 -31 -40 1 -19 -5 -26
-21 -28 -17 -3 -20 1 -16 17 7 26 -7 27 -40 1 -30 -24 -38 -25 -31 -5 4 10 0
15 -15 15 -18 0 -20 -4 -15 -25 4 -17 2 -25 -6 -25 -7 0 -19 -8 -26 -17 -12
-16 -15 -16 -23 -3 -6 8 -8 24 -5 36 5 19 2 21 -55 19 -70 -2 -102 17 -58 34
27 10 57 47 57 69 0 24 -48 62 -80 62 -29 0 -30 2 -30 44 0 55 -27 81 -68 65
-29 -11 -44 3 -40 35 3 16 19 22 109 37 59 10 138 29 175 43 231 82 255 92
349 146 22 13 56 31 75 41 19 10 62 42 95 73 32 30 63 52 67 50 5 -3 15 11 23
30 8 19 29 45 45 58 17 12 30 29 30 38 0 9 9 25 19 35 11 9 29 34 39 54 11 20
41 77 68 126 143 264 243 562 278 830 24 181 26 466 4 570 -52 248 -96 384
-182 567 -14 30 -26 57 -26 60 0 10 -106 192 -149 256 -205 306 -468 491 -851
598 -84 24 -113 27 -250 27 -205 0 -307 -26 -545 -142 -231 -113 -384 -243
-531 -451 -175 -247 -265 -449 -329 -738 -56 -258 -61 -705 -10 -962 57 -284
165 -520 375 -815 77 -109 258 -275 400 -369 111 -72 341 -132 545 -143 l124
-6 -27 -32 c-22 -27 -32 -31 -59 -27 -25 3 -34 0 -49 -23 -14 -22 -15 -31 -6
-46 16 -25 16 -26 -16 -32 -64 -13 -67 -103 -4 -121 38 -11 38 -13 9 -48 -19
-23 -31 -27 -82 -29 -60 -3 -95 -19 -95 -46 0 -16 2 -16 -80 -2 -105 17 -299
82 -405 136 -161 81 -285 179 -457 362 -52 54 -55 61 -34 61 7 0 19 7 26 15 7
8 27 15 45 15 26 0 40 9 69 43 37 43 44 74 27 119 -4 13 -11 36 -15 52 -6 25
-5 28 11 22 16 -5 16 -4 -1 9 -11 8 -23 15 -26 15 -3 0 -12 17 -19 38 -26 79
-33 91 -46 86 -7 -3 -18 3 -24 14 -6 11 -28 31 -48 43 -42 26 -72 58 -73 76 0
6 -5 15 -11 19 -8 4 -9 0 -4 -15 8 -25 2 -26 -30 -5 -14 9 -25 14 -25 11 0 -4
17 -18 37 -31 32 -22 34 -26 17 -32 -10 -4 -22 -12 -26 -18 -4 -6 -26 -10 -50
-9 -30 2 -38 -1 -28 -7 22 -14 72 -11 94 5 30 23 57 18 104 -18 43 -33 105
-115 96 -128 -2 -4 -19 -3 -36 2 -32 9 -100 3 -129 -12 -23 -12 -52 -77 -46
-105 2 -14 0 -27 -5 -30 -5 -4 -7 -18 -3 -33 l7 -26 -25 23 c-13 12 -30 35
-38 50 -8 15 -18 32 -22 37 -130 163 -267 449 -267 556 0 28 -4 39 -15 39 -8
0 -15 3 -15 8 0 4 -10 45 -21 92 -65 278 -92 652 -65 895 24 211 60 400 101
535 52 170 68 216 104 304 23 55 39 101 37 104 -6 6 -39 -62 -66 -138 -13 -36
-27 -70 -31 -75 -13 -18 -100 -317 -116 -400 -8 -44 -19 -100 -24 -125 -5 -25
-13 -81 -18 -125 -5 -44 -15 -111 -21 -148 -12 -77 -6 -344 10 -472 30 -224
41 -296 55 -360 9 -38 19 -86 22 -105 2 -19 15 -58 29 -86 13 -28 24 -56 24
-62 0 -6 6 -23 14 -39 7 -15 29 -59 47 -98 19 -38 39 -77 46 -85 6 -8 33 -55
58 -104 41 -77 123 -198 168 -246 8 -8 31 -37 51 -64 78 -103 113 -141 201
-214 49 -42 92 -79 95 -83 3 -3 10 -8 15 -10 6 -2 40 -26 75 -52 151 -111 174
-127 190 -127 10 0 41 -13 71 -28 61 -32 217 -83 329 -107 41 -9 80 -21 87
-26 6 -6 77 -15 157 -21 115 -9 169 -9 249 1 177 22 260 39 269 56 5 8 17 15
26 15 15 0 15 -2 2 -11 -12 -9 -12 -10 3 -5 10 3 23 6 27 6 5 0 18 10 29 22
12 12 35 22 53 23 36 3 85 22 106 42 12 12 35 17 55 14 5 -1 5 4 1 10 -5 9 -2
10 10 6 9 -4 15 -3 12 1 -5 9 24 30 179 132 184 121 293 210 451 368 57 56
107 102 112 102 5 0 15 7 23 16 10 13 10 17 -2 26 -11 8 -11 9 4 4 9 -3 18 -1
18 4 1 6 2 16 3 23 0 6 7 12 14 12 13 0 46 47 74 109 10 21 31 55 48 76 16 21
30 45 30 54 0 9 5 16 10 16 6 0 10 10 10 22 0 12 7 30 16 39 24 26 83 175 94
234 5 28 19 82 31 120 11 39 24 90 29 115 4 25 11 63 15 85 4 22 11 45 15 50
5 6 11 52 15 103 4 51 11 94 14 96 9 6 4 513 -4 546 -4 14 -8 41 -10 60 -1 19
-5 42 -8 50 -16 43 -37 132 -37 159 0 17 -4 39 -9 49 -17 31 -41 126 -45 173
-3 42 -12 68 -44 124 -6 11 -14 37 -17 57 -3 21 -16 50 -29 65 -23 28 -116
220 -116 240 0 6 -8 21 -19 34 -10 13 -31 49 -47 79 -16 30 -36 64 -46 75 -10
10 -17 23 -15 29 2 5 -10 23 -25 40 -15 17 -28 34 -28 39 0 13 -209 224 -278
280 -84 68 -166 126 -226 160 -63 35 -85 35 -26 0z m-790 -228 c0 -8 -4 -15
-10 -15 -5 0 -10 7 -10 15 0 8 5 15 10 15 6 0 10 -7 10 -15z m-79 -99 l43 -7
-28 -25 c-18 -18 -25 -31 -20 -43 3 -9 9 -26 12 -39 5 -23 5 -23 -33 -7 -37
15 -40 15 -77 -10 l-38 -25 0 49 c0 31 -5 53 -15 61 -19 16 -12 26 23 33 19 4
33 17 46 44 l19 38 13 -31 c11 -26 20 -32 55 -38z m79 34 c0 -5 -2 -10 -4 -10
-3 0 -8 5 -11 10 -3 6 -1 10 4 10 6 0 11 -4 11 -10z m-30 -135 c0 -5 -5 -3
-10 5 -5 8 -10 20 -10 25 0 6 5 3 10 -5 5 -8 10 -19 10 -25z m134 -82 c-4 -16
-11 -32 -16 -38 -9 -9 -1 39 9 58 9 16 13 5 7 -20z m-254 -3 c0 -5 -2 -10 -4
-10 -3 0 -8 5 -11 10 -3 6 -1 10 4 10 6 0 11 -4 11 -10z m110 0 c8 -5 11 -10
5 -10 -5 0 -17 5 -25 10 -8 5 -10 10 -5 10 6 0 17 -5 25 -10z m-35 -10 c3 -5
15 -10 26 -10 22 0 23 -5 10 -46 -5 -16 -12 -46 -16 -67 -7 -41 -25 -41 -25 0
0 24 -32 59 -69 75 -10 4 -11 7 -3 7 6 1 12 10 12 20 0 12 8 21 23 24 12 2 25
5 29 6 4 0 10 -3 13 -9z m82 -42 c-3 -7 -5 -2 -5 12 0 14 2 19 5 13 2 -7 2
-19 0 -25z m30 -20 c-3 -8 -6 -5 -6 6 -1 11 2 17 5 13 3 -3 4 -12 1 -19z
m1091 -10 c14 -14 16 -48 3 -48 -5 0 -16 7 -25 15 -18 19 -26 19 -26 1 0 -8 7
-16 15 -20 22 -8 18 -25 -7 -35 -25 -10 -48 3 -48 26 0 22 42 73 60 73 9 0 21
-5 28 -12z m-1278 -47 c0 -6 -4 -13 -10 -16 -5 -3 -10 1 -10 9 0 9 5 16 10 16
6 0 10 -4 10 -9z m804 -62 c24 -28 30 -30 69 -24 34 6 40 5 30 -6 -19 -19 -16
-42 7 -62 24 -20 26 -42 4 -33 -21 8 -60 -17 -69 -44 -9 -30 -23 -24 -33 13
-8 29 -12 32 -48 33 -21 1 -43 2 -47 3 -5 0 6 13 23 28 30 25 32 29 26 75 -8
56 2 60 38 17z m-736 -24 c18 -25 32 -48 32 -52 0 -3 11 -21 25 -39 14 -18 25
-36 25 -40 0 -13 43 -54 56 -54 7 0 29 9 51 19 73 37 214 93 220 88 3 -3 -2
-28 -11 -54 -69 -209 -71 -223 -28 -223 15 0 55 7 89 15 34 8 87 19 118 23 66
11 69 16 -60 -116 -49 -51 -91 -97 -93 -102 -4 -11 0 -12 171 -42 70 -12 127
-25 127 -29 0 -3 -39 -27 -88 -52 -164 -85 -166 -86 -139 -119 6 -8 54 -46
106 -84 l94 -69 -129 -5 c-149 -6 -152 -8 -106 -87 36 -61 58 -120 49 -130 -7
-6 -53 10 -159 54 -20 8 -41 13 -46 9 -5 -3 -29 -59 -52 -123 -23 -65 -57
-158 -75 -208 -18 -49 -37 -101 -41 -115 l-8 -25 -7 30 c-11 49 -10 165 2 187
6 11 12 45 14 75 2 32 10 62 19 72 20 22 21 41 1 41 -7 0 -18 6 -22 13 -4 8
-16 16 -26 20 -34 13 -44 65 -51 252 -3 99 -5 202 -6 228 0 38 -5 53 -26 72
-24 22 -25 25 -10 53 14 27 14 35 0 83 -10 33 -14 72 -11 100 5 36 2 49 -12
61 -16 13 -21 14 -32 2 -8 -7 -24 -22 -36 -34 -34 -30 -28 -41 12 -24 l35 14
0 -33 c0 -19 7 -56 15 -82 13 -44 12 -51 -3 -77 -9 -15 -19 -28 -22 -28 -6 0
-43 79 -58 125 -6 18 -11 23 -11 12 -1 -10 11 -47 25 -83 l25 -64 -20 -26
c-20 -25 -20 -35 -14 -263 6 -221 5 -240 -13 -269 -10 -18 -24 -32 -32 -32
-19 0 -62 -31 -62 -45 0 -7 7 -18 15 -25 8 -7 15 -23 15 -36 0 -14 4 -32 9
-42 40 -78 42 -88 39 -177 l-3 -90 -49 120 c-27 66 -57 139 -68 162 -10 23
-18 44 -18 47 0 17 -52 116 -62 116 -6 0 -65 -27 -132 -60 -138 -68 -157 -73
-132 -35 9 14 34 59 56 100 22 41 47 86 56 100 10 15 13 30 8 34 -5 5 -83 12
-174 16 -150 6 -193 11 -165 21 6 2 46 25 91 52 44 26 113 63 152 82 39 19 71
40 72 47 0 10 -88 41 -309 109 -8 3 -12 7 -9 10 7 6 166 52 242 69 77 18 84
26 55 63 -107 130 -149 185 -149 194 0 6 11 8 28 5 15 -3 61 -13 102 -21 41
-8 89 -19 106 -24 54 -17 57 -4 20 88 -19 47 -44 107 -56 133 -12 27 -19 51
-16 55 4 3 59 -21 124 -53 64 -32 132 -64 150 -72 l33 -14 59 126 c33 69 63
125 68 125 4 0 23 -20 40 -45z m-737 -23 c-17 -32 -13 -63 8 -69 11 -3 22 -12
25 -20 5 -11 0 -13 -22 -8 -35 7 -53 -11 -58 -57 -1 -18 -3 -35 -4 -38 0 -3
-10 12 -21 33 -18 35 -23 38 -50 32 -32 -7 -38 5 -15 28 8 8 16 27 18 43 2 22
9 30 27 32 14 2 41 15 60 28 39 26 48 25 32 -4z m1329 -26 c0 -3 -4 -8 -10
-11 -5 -3 -10 -1 -10 4 0 6 5 11 10 11 6 0 10 -2 10 -4z m860 -27 c0 -15 -7
-19 -34 -19 -19 0 -39 7 -47 17 -13 15 -11 16 18 10 23 -4 33 -2 37 9 8 20 26
8 26 -17z m-2039 -36 c-9 -16 -10 -14 -11 12 0 21 3 26 11 18 8 -8 8 -16 0
-30z m1136 -5 c-3 -8 -6 -5 -6 6 -1 11 2 17 5 13 3 -3 4 -12 1 -19z m-1133
-60 c9 -17 15 -32 14 -33 -27 -14 -58 -23 -58 -16 0 5 6 11 14 14 14 6 16 30
3 43 -10 10 -9 24 2 24 5 0 17 -14 25 -32z m31 23 c3 -5 1 -12 -5 -16 -5 -3
-10 1 -10 9 0 18 6 21 15 7z m-95 -21 c-8 -5 -22 -9 -30 -9 -10 0 -8 3 5 9 27
12 43 12 25 0z m1100 7 c0 -2 -10 -12 -21 -23 -22 -19 -22 -19 -10 4 10 18 31
31 31 19z m-1113 -73 c-3 -3 -12 -4 -19 -1 -8 3 -5 6 6 6 11 1 17 -2 13 -5z
m2034 -27 c6 -23 4 -28 -16 -33 -43 -11 -60 19 -29 51 21 21 36 15 45 -18z
m-1941 -247 c0 -5 -7 -10 -15 -10 -8 0 -15 5 -15 10 0 6 7 10 15 10 8 0 15 -4
15 -10z m2305 0 c3 -6 -1 -7 -9 -4 -18 7 -21 14 -7 14 6 0 13 -4 16 -10z m26
-36 c7 -8 14 -34 15 -57 1 -23 6 -51 10 -62 7 -18 6 -18 -9 -6 -9 7 -17 24
-17 36 0 12 -7 28 -15 35 -16 13 -21 70 -6 70 5 0 14 -7 22 -16z m-651 -34 c0
-10 9 -24 20 -30 16 -8 80 -124 80 -144 0 -4 -18 3 -41 15 l-41 20 -22 -20
c-32 -30 -46 -26 -46 14 0 30 -5 37 -41 55 -49 25 -45 34 16 32 41 -2 45 0 45
22 0 31 10 56 21 56 5 0 9 -9 9 -20z m-2190 -130 l1 -25 13 25 c8 14 12 28 10
31 -5 9 25 21 36 14 4 -3 0 -21 -10 -41 -18 -35 -18 -37 1 -71 l20 -36 -23 7
c-77 22 -88 19 -116 -29 -10 -18 -11 -18 -12 10 0 40 -23 71 -57 80 l-27 6 37
22 c28 16 37 27 37 48 0 60 10 64 51 23 22 -23 38 -49 39 -64z m1115 -130 c4
-127 5 -234 2 -237 -13 -12 -95 -15 -102 -4 -4 7 -7 111 -8 232 -1 244 -3 239
64 239 l37 0 7 -230z m-998 214 c-3 -3 -12 -4 -19 -1 -8 3 -5 6 6 6 11 1 17
-2 13 -5z m33 -31 c0 -10 -7 -26 -14 -36 -13 -16 -14 -16 -18 6 -2 12 -3 28 0
35 6 19 32 14 32 -5z m54 -2 c3 -5 15 -7 25 -4 10 3 22 0 25 -6 4 -5 12 -8 19
-6 20 8 102 -21 103 -36 2 -30 5 -31 25 -13 16 14 23 15 26 7 3 -7 16 -13 29
-13 13 0 24 -4 24 -9 0 -12 -64 -21 -138 -21 -13 0 -21 -4 -18 -9 6 -9 -62
-26 -71 -17 -10 10 9 26 30 26 32 0 8 17 -34 23 -28 4 -42 1 -58 -14 -26 -24
-26 -24 -26 6 0 20 4 24 19 19 14 -5 18 -2 13 8 -3 8 -1 21 3 28 6 9 3 18 -8
27 -10 7 -12 12 -5 13 6 0 14 -4 17 -9z m-54 -94 c0 -4 -9 -3 -20 3 -11 6 -20
15 -20 20 0 6 9 5 20 -2 11 -7 20 -16 20 -21z m88 -21 c2 -29 -24 -42 -36 -18
-12 23 -4 42 17 42 10 0 17 -9 19 -24z m128 -61 c-20 -15 -36 -19 -36 -10 0 5
38 23 50 24 3 0 -4 -6 -14 -14z m2402 -92 c8 -35 7 -50 -1 -55 -8 -5 -15 4
-20 25 -4 18 -11 42 -14 55 -4 15 -1 22 10 22 10 0 19 -16 25 -47z m-70 -43
c35 -52 11 -64 -36 -17 -31 31 -34 39 -22 47 21 14 32 8 58 -30z m152 26 c0
-32 -19 -66 -35 -60 -19 8 -19 24 1 52 17 25 34 29 34 8z m-2282 -40 c17 -18
-97 -149 -122 -140 -19 7 -18 54 1 61 15 6 18 63 4 63 -5 0 -11 6 -14 13 -3 9
12 12 60 10 36 -1 68 -4 71 -7z m-228 -16 c0 -5 -7 -10 -16 -10 -8 0 -12 5 -9
10 3 6 10 10 16 10 5 0 9 -4 9 -10z m85 -11 c-4 -5 -12 -9 -18 -8 -9 0 -8 2 1
6 6 2 9 10 6 15 -4 7 -2 8 5 4 6 -4 9 -12 6 -17z m-54 -18 c-7 -5 -11 -14 -7
-20 5 -7 1 -9 -8 -5 -26 10 -17 34 13 34 13 0 13 -2 2 -9z m59 -20 c0 -6 -5
-13 -10 -16 -15 -9 -43 3 -35 15 8 13 45 13 45 1z m1378 -31 c1 -33 -2 -38
-12 -27 -24 24 -29 55 -9 60 10 3 19 5 19 6 1 0 2 -17 2 -39z m-1663 20 c-3
-5 -11 -10 -16 -10 -6 0 -7 5 -4 10 3 6 11 10 16 10 6 0 7 -4 4 -10z m45 0 c0
-5 -5 -10 -11 -10 -5 0 -7 5 -4 10 3 6 8 10 11 10 2 0 4 -4 4 -10z m143 -37
c-4 -28 -1 -40 13 -50 13 -10 14 -13 3 -13 -8 0 -20 -9 -27 -20 -7 -11 -19
-20 -26 -20 -8 0 -22 -7 -31 -16 -12 -13 -19 -14 -28 -5 -8 8 -7 11 6 11 9 0
17 5 17 10 0 6 -11 10 -25 10 -15 0 -25 6 -25 14 0 23 -35 11 -38 -12 -2 -12
-9 -23 -15 -23 -7 -1 -32 -3 -57 -4 -41 -3 -43 -2 -25 11 11 8 26 12 35 9 12
-5 13 -4 2 6 -10 11 -4 17 28 34 21 11 62 32 90 47 27 15 50 23 50 18 0 -5 -7
-13 -17 -18 -13 -8 -12 -9 8 -9 19 0 24 5 24 23 0 13 -4 24 -10 25 -5 1 1 4
15 8 35 11 39 6 33 -36z m1797 37 c0 -5 -2 -10 -4 -10 -3 0 -8 5 -11 10 -3 6
-1 10 4 10 6 0 11 -4 11 -10z m543 -6 c11 -11 -5 -34 -24 -34 -18 0 -26 20
-12 33 8 9 28 9 36 1z m217 -30 c0 -9 -11 -14 -30 -14 -30 0 -43 24 -17 33 20
6 47 -4 47 -19z m-1140 -3 c0 -11 -4 -23 -10 -26 -6 -4 -10 5 -10 19 0 14 5
26 10 26 6 0 10 -9 10 -19z m-1605 -20 c-6 -5 -21 -12 -35 -16 -24 -7 -24 -7
-5 9 21 16 56 23 40 7z m1637 -23 c-5 -21 -6 -21 -12 -2 -8 21 -3 37 10 29 4
-3 6 -15 2 -27z m-1364 10 c19 -19 14 -42 -13 -68 -14 -13 -25 -30 -25 -37 0
-7 -11 -18 -25 -23 -14 -5 -25 -14 -25 -20 0 -6 -4 -9 -9 -6 -4 3 -7 16 -6 28
1 13 3 29 4 35 0 7 12 15 26 19 14 3 25 12 25 20 0 8 5 14 11 14 5 0 8 4 5 9
-7 11 3 41 13 41 4 0 12 -5 19 -12z m-348 -24 c0 -8 -5 -12 -10 -9 -6 4 -8 11
-5 16 9 14 15 11 15 -7z m412 -2 c-16 -40 -47 -81 -64 -85 -27 -8 -22 6 23 57
44 50 52 56 41 28z m2238 -6 c0 -8 -9 -24 -20 -37 -17 -21 -19 -22 -20 -6 0
23 18 57 30 57 6 0 10 -6 10 -14z m129 -23 c6 -14 9 -28 6 -31 -8 -8 -32 19
-40 45 -9 32 18 20 34 -14z m-1009 17 c0 -12 -37 -14 -44 -2 -2 4 6 9 20 10
13 1 24 -3 24 -8z m954 -54 c8 -42 -1 -66 -24 -66 -29 0 -34 34 -15 97 7 23
33 2 39 -31z m-2167 -28 c-3 -8 -6 -5 -6 6 -1 11 2 17 5 13 3 -3 4 -12 1 -19z
m42 -17 c-17 -38 -32 -41 -18 -5 13 36 20 46 26 40 3 -3 -1 -19 -8 -35z m-409
15 c0 -8 -4 -17 -9 -21 -6 -3 -9 4 -8 15 1 23 17 28 17 6z m1660 -6 c0 -5 -4
-10 -10 -10 -5 0 -10 5 -10 10 0 6 5 10 10 10 6 0 10 -4 10 -10z m267 -100
c25 -22 41 -40 37 -41 -5 -1 -25 0 -45 1 -45 2 -57 -13 -61 -75 l-4 -50 -22
48 c-22 46 -24 47 -67 47 -25 0 -45 2 -45 5 0 4 7 20 16 37 11 20 14 42 9 65
l-6 35 41 -7 c37 -6 43 -4 63 21 l22 28 8 -37 c6 -24 24 -50 54 -77z m-1992
90 c3 -5 1 -10 -4 -10 -6 0 -11 5 -11 10 0 6 2 10 4 10 3 0 8 -4 11 -10z m239
1 c3 -5 -1 -11 -9 -14 -9 -4 -12 -1 -8 9 6 16 10 17 17 5z m-360 -69 c4 -8 23
-9 54 -5 l47 6 -20 -24 c-11 -13 -26 -28 -32 -32 -10 -6 -8 -17 8 -48 l20 -41
-54 7 c-51 7 -56 5 -91 -25 -40 -36 -45 -28 -24 42 11 38 10 40 -18 63 l-29
23 35 9 c27 7 41 19 60 54 l24 44 7 -31 c3 -17 9 -36 13 -42z m208 -4 c-12
-12 -24 -19 -28 -16 -3 4 4 16 16 28 12 12 24 19 28 16 3 -4 -4 -16 -16 -28z
m78 22 c0 -5 -5 -10 -11 -10 -5 0 -7 5 -4 10 3 6 8 10 11 10 2 0 4 -4 4 -10z
m455 -30 c3 -5 1 -10 -4 -10 -6 0 -11 5 -11 10 0 6 2 10 4 10 3 0 8 -4 11 -10z
m225 -80 c0 -5 -5 -10 -11 -10 -5 0 -7 5 -4 10 3 6 8 10 11 10 2 0 4 -4 4 -10z
m-188 -32 c-8 -8 -9 -4 -5 13 4 13 8 18 11 10 2 -7 -1 -18 -6 -23z m1328 -83
c-7 -9 -15 -13 -18 -10 -3 2 1 11 8 20 7 9 15 13 18 10 3 -2 -1 -11 -8 -20z
m-364 -12 c-7 -7 -26 7 -26 19 0 6 6 6 15 -2 9 -7 13 -15 11 -17z m-18 -45
c46 -69 47 -71 23 -56 -12 7 -21 18 -21 25 0 6 -8 18 -18 25 -21 15 -36 48
-22 48 5 0 22 -19 38 -42z m432 22 c0 -5 -4 -10 -9 -10 -6 0 -13 5 -16 10 -3
6 1 10 9 10 9 0 16 -4 16 -10z m-1514 -66 c-4 -14 -10 -23 -15 -20 -4 3 -3 22
3 41 12 39 22 21 12 -21z m1027 16 c11 0 17 -8 17 -24 0 -13 11 -40 25 -61 15
-20 24 -39 22 -42 -3 -2 -18 15 -33 38 -16 23 -37 50 -46 60 -10 11 -18 24
-18 29 0 6 -4 10 -10 10 -5 0 -10 5 -10 12 0 6 7 4 18 -5 10 -10 26 -17 35
-17z m-1573 14 c0 -4 -13 -22 -30 -41 -34 -38 -42 -20 -9 21 19 24 39 34 39
20z m2040 -15 c0 -5 -4 -9 -10 -9 -5 0 -10 7 -10 16 0 8 5 12 10 9 6 -3 10
-10 10 -16z m-1700 -39 c0 -5 -4 -10 -10 -10 -5 0 -10 5 -10 10 0 6 5 10 10
10 6 0 10 -4 10 -10z m-340 -13 c0 -2 -10 -12 -21 -23 -22 -19 -22 -19 -8 4
12 19 29 30 29 19z m598 -23 c0 -17 -3 -22 -8 -13 -5 6 -6 18 -3 26 8 19 11
16 11 -13z m-37 -11 c-8 -15 -10 -15 -11 -2 0 17 10 32 18 25 2 -3 -1 -13 -7
-23z m958 -6 c12 -15 12 -17 -3 -11 -9 3 -16 13 -16 22 0 8 1 13 3 11 1 -2 9
-12 16 -22z m-1624 -27 c-3 -5 -12 -10 -18 -10 -7 0 -6 4 3 10 19 12 23 12 15
0z m-109 -67 c-10 -10 -19 5 -10 18 6 11 8 11 12 0 2 -7 1 -15 -2 -18z m1794
14 c0 -8 -7 -14 -15 -14 -16 0 -19 9 -8 20 11 11 23 8 23 -6z m-1505 -36 c-9
-18 -20 -29 -26 -26 -5 4 0 19 12 36 27 38 36 31 14 -10z m815 15 c0 -8 -4
-17 -9 -21 -12 -7 -24 12 -16 25 9 15 25 12 25 -4z m-950 -15 c-11 -21 -29
-36 -36 -29 -4 5 33 48 42 48 2 0 0 -9 -6 -19z m70 -24 c0 -8 -9 -24 -20 -37
-11 -13 -20 -29 -20 -36 0 -7 -6 -19 -13 -26 -6 -7 -25 -33 -40 -56 -16 -24
-31 -42 -33 -39 -8 8 26 69 53 96 13 13 26 36 30 50 3 14 13 34 22 43 20 21
21 21 21 5z m159 -82 c-17 -36 -36 -65 -41 -65 -13 0 3 50 28 88 13 18 26 43
30 55 7 19 8 19 12 5 2 -10 -11 -47 -29 -83z m-400 29 c-34 -36 -45 -29 -12 9
15 18 30 29 32 24 2 -4 -7 -19 -20 -33z m458 -10 c-20 -38 -27 -16 -9 26 11
25 17 30 19 18 2 -9 -2 -29 -10 -44z m-197 9 c0 -3 -12 -27 -27 -52 -32 -55
-44 -38 -12 19 20 36 39 52 39 33z m73 -49 c-15 -35 -17 -36 -21 -16 -2 13 4
32 14 43 25 27 27 18 7 -27z m-252 -1 c-10 -21 -28 -49 -40 -62 -12 -13 -21
-30 -21 -36 0 -7 -7 -18 -15 -25 -23 -19 -19 -39 7 -32 16 4 19 2 13 -8 -6
-10 -1 -12 19 -8 23 5 26 2 26 -23 0 -16 -1 -32 -2 -36 -4 -12 -52 -3 -60 10
-9 15 0 29 15 21 7 -3 3 2 -7 10 -13 11 -23 13 -31 6 -9 -7 -20 -4 -36 10 -13
10 -19 19 -12 20 6 0 15 -4 18 -10 8 -13 25 -13 25 -1 0 5 -7 16 -15 24 -7 8
-17 26 -21 41 -5 21 -3 25 9 20 12 -4 16 3 19 33 2 30 7 38 23 38 17 0 19 -6
17 -32 -2 -18 -1 -33 2 -33 3 0 21 25 41 55 43 64 54 71 26 18z m341 -36 c-9
-23 -25 -55 -35 -72 -17 -27 -18 -28 -12 -5 3 14 10 39 14 55 11 43 30 76 41
70 4 -3 1 -24 -8 -48z m89 17 c-9 -28 -9 -29 -10 -3 -1 14 2 29 6 32 11 12 13
2 4 -29z m166 -1 c-3 -10 -5 -4 -5 12 0 17 2 24 5 18 2 -7 2 -21 0 -30z m-213
-18 c-9 -14 -18 -25 -20 -25 -2 0 2 11 8 25 6 14 15 25 20 25 5 0 1 -11 -8
-25z m159 -25 c-3 -12 -8 -19 -11 -16 -5 6 5 36 12 36 2 0 2 -9 -1 -20z m-129
-5 c-4 -8 -8 -15 -10 -15 -2 0 -4 7 -4 15 0 8 4 15 10 15 5 0 7 -7 4 -15z
m-332 -58 c-11 -12 -29 -41 -41 -64 -24 -48 -32 -55 -24 -20 6 24 41 78 57 89
6 4 7 10 3 14 -4 4 -1 14 6 22 10 13 12 13 15 -2 2 -10 -5 -28 -16 -39z m118
35 c0 -5 -7 -17 -15 -28 -14 -18 -14 -17 -4 9 12 27 19 34 19 19z m-70 -51 c0
-5 -7 -14 -15 -21 -12 -10 -15 -10 -15 2 0 8 3 18 7 21 9 10 23 9 23 -2z m-2
-108 c-50 -102 -49 -102 -55 -85 -7 19 -20 14 -26 -9 -3 -12 -10 -18 -15 -15
-6 3 -13 0 -16 -6 -3 -7 -3 -1 1 15 3 15 0 34 -7 42 -13 16 -4 38 13 32 7 -2
20 8 29 22 l18 26 -7 -39 c-10 -60 14 -42 61 47 55 104 58 81 4 -30z m187 46
c-25 -54 -31 -41 -9 17 10 26 20 42 22 35 2 -7 -4 -30 -13 -52z m49 7 c-3 -21
-8 -35 -11 -32 -2 2 -1 20 3 40 3 21 8 35 11 32 2 -2 1 -20 -3 -40z m-138 -81
c-10 -19 -23 -50 -31 -68 -8 -17 -14 -25 -15 -16 0 21 50 132 57 125 3 -3 -2
-21 -11 -41z m95 -32 c-9 -16 -10 -15 -11 8 0 14 3 29 8 33 12 12 14 -22 3
-41z m-186 -39 c-29 -59 -27 -76 6 -55 28 17 34 8 19 -29 -14 -35 -25 -38 -41
-11 -11 17 -14 17 -40 3 -22 -14 -30 -14 -43 -3 -25 21 -19 30 22 37 35 5 40
11 67 68 17 35 32 59 33 54 2 -5 -8 -34 -23 -64z m150 -66 c-16 -40 -35 -82
-42 -93 -7 -11 -14 -38 -14 -60 -1 -22 -5 -53 -9 -70 -6 -25 -8 -27 -14 -13
-5 10 -12 16 -16 13 -11 -7 -21 22 -13 41 3 8 12 13 19 10 18 -7 28 32 13 50
-7 8 -19 12 -27 9 -7 -3 -27 3 -42 12 -28 16 -29 16 -48 -7 -16 -20 -20 -21
-25 -7 -4 11 -2 14 8 11 7 -3 16 3 19 13 4 12 25 25 55 35 48 15 49 15 54 -4
5 -19 6 -19 29 -2 15 11 29 37 36 67 6 27 17 56 23 63 24 29 21 2 -6 -68z
m-219 35 c-10 -10 -19 5 -10 18 6 11 8 11 12 0 2 -7 1 -15 -2 -18z m166 -23
c-9 -22 -20 -40 -25 -40 -10 0 3 54 15 58 4 2 8 10 8 18 0 9 4 13 9 9 5 -3 2
-22 -7 -45z m-377 -207 c42 -5 49 -10 61 -39 17 -41 18 -114 2 -149 -15 -33
-51 -33 -90 1 -41 34 -56 20 -41 -37 9 -35 8 -41 -6 -47 -9 -3 -18 -9 -22 -14
-3 -4 -22 15 -43 42 -21 28 -36 53 -33 57 4 3 2 14 -3 23 -8 15 -2 21 35 37
l45 19 -25 22 c-30 27 -31 32 -4 66 22 28 41 31 124 19z m1269 -525 c4 -22 1
-37 -11 -50 -16 -18 -17 -17 -30 13 -16 38 -9 69 16 69 13 0 21 -10 25 -32z
m96 -21 c0 -27 -33 -62 -50 -52 -11 7 -5 41 12 63 17 20 38 14 38 -11z m-191
-25 c30 -42 11 -64 -23 -27 -14 15 -26 34 -26 41 0 24 28 15 49 -14z m-15 -75
c22 -16 12 -44 -17 -49 -54 -9 -87 12 -73 47 7 19 65 20 90 2z m289 -6 c8 -33
-7 -44 -53 -38 -38 5 -59 19 -60 39 0 9 27 15 71 17 28 1 38 -3 42 -18z m-179
-6 c17 -17 11 -45 -10 -45 -16 0 -37 37 -29 50 9 14 21 12 39 -5z m-101 -95
c-16 -28 -43 -41 -43 -21 0 9 47 51 57 51 2 0 -4 -13 -14 -30z m494 -46 c-3
-3 -12 -4 -19 -1 -8 3 -5 6 6 6 11 1 17 -2 13 -5z m-607 -34 c0 -5 -8 -10 -17
-10 -15 0 -16 2 -3 10 19 12 20 12 20 0z"/>
<path d="M1430 2871 c0 -5 -3 -18 -7 -28 -6 -16 -5 -16 10 -4 14 11 18 11 22
-1 6 -15 71 -13 80 2 4 6 -30 21 -57 24 -3 1 -10 4 -14 9 -10 10 -34 9 -34 -2z"/>
<path d="M1682 2520 c0 -19 2 -27 5 -17 2 9 2 25 0 35 -3 9 -5 1 -5 -18z"/>
<path d="M1466 2411 c-3 -5 1 -11 9 -15 9 -3 15 0 15 9 0 16 -16 20 -24 6z"/>
<path d="M1071 907 c-16 -16 -14 -27 4 -21 8 4 15 1 15 -5 0 -6 -4 -11 -10
-11 -5 0 -10 -4 -10 -10 0 -14 13 -13 34 3 10 7 15 19 11 29 -9 22 -30 29 -44
15z"/>
<path d="M1540 4270 c0 -5 -11 -10 -23 -10 -42 0 -61 -32 -54 -92 4 -28 11
-56 17 -62 5 -5 10 -18 10 -28 0 -9 17 -35 38 -58 46 -47 78 -51 119 -16 25
22 26 27 18 62 -12 46 -31 43 -27 -4 4 -31 2 -33 -24 -30 -54 6 -133 170 -97
200 10 8 20 5 38 -12 33 -31 40 -21 18 24 -17 34 -33 47 -33 26z m-30 -165 c0
-5 -5 -3 -10 5 -5 8 -10 20 -10 25 0 6 5 3 10 -5 5 -8 10 -19 10 -25z"/>
<path d="M3092 4243 c3 -25 -87 -209 -108 -221 -22 -12 -12 -42 14 -42 14 0
20 7 20 24 0 28 45 109 55 99 4 -3 8 -38 8 -77 2 -84 10 -128 25 -133 6 -2 40
50 75 116 40 76 71 122 83 125 16 4 17 7 6 21 -12 15 -15 15 -29 0 -9 -8 -30
-39 -47 -68 -17 -29 -35 -52 -40 -52 -5 0 -12 47 -15 104 -5 71 -11 106 -20
112 -21 13 -29 11 -27 -8z"/>
<path d="M1353 4159 c-8 -8 -7 -15 3 -27 33 -37 84 -126 96 -164 12 -40 4 -57
-27 -58 -15 0 -116 129 -127 163 -6 15 -12 27 -15 27 -9 0 -73 -53 -73 -60 0
-5 8 -6 19 -3 14 3 29 -12 64 -65 75 -114 132 -142 177 -85 25 32 21 79 -10
123 -23 32 -75 143 -72 153 3 11 -23 8 -35 -4z m-53 -119 c7 -16 18 -35 26
-41 8 -6 14 -15 14 -20 0 -18 -20 -8 -55 27 -29 29 -34 39 -24 50 17 21 25 17
39 -16z"/>
<path d="M1082 3918 c-8 -10 -4 -13 13 -14 16 -1 22 2 18 12 -6 17 -17 18 -31
2z"/>
<path d="M1305 3847 c14 -108 -24 -116 -115 -24 -34 34 -57 52 -51 40 6 -12
17 -25 24 -30 8 -5 2 -9 -17 -13 l-29 -5 57 -69 c31 -38 56 -76 56 -85 0 -11
9 -5 26 16 13 18 43 51 64 75 22 24 40 51 40 60 0 10 -14 32 -31 50 l-30 33 6
-48z"/>
<path d="M906 3712 c-28 -41 -30 -75 -3 -37 13 16 14 16 20 1 4 -9 2 -16 -3
-16 -13 0 -13 -13 2 -47 26 -63 23 -70 -33 -77 -32 -4 -56 -3 -64 4 -10 9 -16
7 -24 -9 -15 -26 -14 -38 1 -23 7 7 42 12 85 12 l73 0 0 -32 c0 -18 9 -51 19
-73 10 -22 21 -53 25 -69 l7 -30 26 43 c23 40 24 44 10 74 -9 18 -20 45 -26
60 -10 27 -10 27 34 27 25 0 45 -4 45 -10 0 -18 17 -11 33 13 l15 23 -69 -4
-68 -4 -19 43 c-23 52 -49 126 -54 154 -3 17 -9 13 -32 -23z"/>
<path d="M746 3442 c-9 -8 -7 -32 2 -31 25 4 46 -6 88 -42 26 -23 58 -46 70
-51 12 -6 30 -25 40 -44 17 -32 17 -34 -1 -53 -10 -12 -28 -21 -40 -21 -46 0
-205 83 -205 108 0 26 -19 10 -34 -29 -9 -23 -16 -42 -14 -43 2 -2 27 -10 56
-19 30 -9 67 -28 82 -41 33 -28 105 -41 144 -27 30 12 46 46 46 98 0 26 -8 42
-32 65 -43 39 -195 138 -202 130z"/>
<path d="M810 3074 c0 -3 9 -18 19 -33 30 -41 31 -95 3 -110 -21 -11 -155 18
-215 48 -23 11 -41 19 -42 18 -36 -78 -34 -85 23 -85 27 0 90 -14 149 -33
l101 -34 26 95 c14 52 22 98 18 102 -11 11 -82 39 -82 32z"/>
<path d="M3852 2968 c-18 -18 -14 -43 11 -64 12 -10 19 -15 15 -10 -4 5 -1 18
7 29 10 14 11 25 4 39 -11 21 -20 23 -37 6z"/>
<path d="M607 2573 c-3 -4 -8 -24 -12 -44 -6 -32 -9 -35 -34 -31 -39 5 -57
-19 -44 -62 9 -31 8 -33 -18 -43 -29 -11 -46 -49 -35 -78 3 -9 19 -21 35 -28
24 -10 28 -16 20 -30 -6 -10 -9 -30 -7 -45 3 -28 22 -34 60 -18 12 6 18 0 23
-23 8 -39 29 -55 60 -47 22 6 25 12 25 53 0 46 0 46 21 27 30 -27 54 -8 53 42
-1 24 3 42 12 47 28 16 6 87 -27 87 -5 0 0 16 10 36 13 24 17 43 12 58 -9 24
-45 33 -66 16 -11 -9 -14 -3 -17 37 -3 46 -4 48 -35 51 -17 2 -33 -1 -36 -5z
m47 -19 c15 -38 2 -114 -19 -114 -18 0 -29 53 -21 96 7 35 29 46 40 18z m-68
-109 c14 -21 14 -28 3 -41 -12 -15 -15 -14 -31 6 -22 27 -24 60 -3 60 8 0 22
-11 31 -25z m148 16 c7 -11 -10 -61 -21 -61 -5 0 -14 4 -22 9 -12 8 -12 13 3
35 17 27 31 33 40 17z m-174 -110 c15 -30 13 -32 -27 -29 -31 2 -39 7 -41 26
-3 19 1 22 27 22 20 0 34 -7 41 -19z m60 -8 c0 -20 -3 -24 -11 -16 -7 7 -9 19
-6 27 10 24 17 19 17 -11z m130 -13 c0 -14 -7 -20 -24 -20 -19 0 -23 4 -19 20
3 11 14 20 24 20 12 0 19 -7 19 -20z m-160 -59 c0 -10 -9 -29 -19 -42 -18 -22
-20 -23 -27 -6 -9 24 11 67 31 67 8 0 15 -9 15 -19z m142 -16 c24 -53 -34 -47
-62 6 -10 17 -7 19 20 19 23 0 33 -6 42 -25z m-81 -34 c13 -44 7 -71 -15 -71
-10 0 -17 15 -21 44 -11 73 16 93 36 27z"/>
<path d="M4042 1992 c-15 -32 -10 -38 11 -14 9 9 13 23 9 29 -5 7 -12 2 -20
-15z"/>
<path d="M637 1971 c37 -35 41 -93 15 -233 -5 -26 -6 -52 -2 -58 6 -10 41 164
40 203 0 28 -37 94 -57 101 -14 6 -13 3 4 -13z"/>
<path d="M560 1960 c-13 -24 3 -60 25 -60 20 0 19 16 -1 24 -11 4 -15 14 -12
31 6 30 2 32 -12 5z"/>
<path d="M3906 1952 c-4 -13 -5 -26 -2 -29 10 -11 18 4 14 29 l-4 23 -8 -23z"/>
<path d="M3911 1901 c-1 -7 5 -39 13 -70 8 -31 16 -78 19 -104 l5 -49 -29 51
c-16 28 -38 55 -50 61 -24 13 -23 14 -37 -27 -12 -35 6 -73 35 -73 13 0 13 3
3 15 -13 16 -5 69 10 60 16 -10 33 -77 21 -84 -7 -5 -4 -12 8 -23 10 -8 21
-35 25 -58 12 -79 -50 -168 -181 -258 -17 -12 -33 -22 -36 -22 -2 0 2 19 11
43 9 25 12 54 9 69 -8 29 -45 48 -57 28 -11 -17 0 -50 16 -50 17 0 18 -11 2
-45 -6 -14 -17 -24 -24 -21 -9 3 -17 -8 -23 -31 -11 -37 -56 -93 -76 -93 -7 0
-24 -25 -40 -55 -15 -30 -33 -55 -39 -55 -18 0 -56 -43 -56 -64 0 -9 -9 -34
-20 -56 -11 -22 -20 -44 -20 -51 0 -24 -66 -149 -81 -154 -8 -3 -15 -15 -15
-26 1 -15 -9 -25 -37 -36 -21 -9 -40 -14 -42 -11 -11 10 9 48 26 48 31 0 31
18 -1 25 -40 9 -60 -8 -60 -50 0 -52 42 -54 132 -7 15 7 -23 -82 -48 -115 -14
-19 -24 -37 -21 -39 6 -7 38 39 66 94 12 23 26 40 30 37 5 -2 8 3 7 13 0 11 5
16 16 14 11 -2 15 3 11 16 -9 37 59 260 85 276 7 4 9 -20 8 -66 -2 -70 -1 -73
33 -111 30 -33 39 -38 64 -33 17 3 36 1 43 -5 12 -9 14 -1 16 45 1 31 2 64 2
73 2 34 -32 26 -48 -11 -10 -24 -21 -36 -35 -36 -42 0 -61 88 -37 170 l16 55
83 23 c45 12 88 22 94 22 19 0 46 -47 39 -66 -6 -16 -8 -16 -24 0 -20 17 -47
22 -37 6 3 -5 -1 -23 -10 -40 -21 -41 -13 -50 37 -39 80 18 101 85 42 137 -31
27 -64 28 -139 2 -32 -11 -60 -20 -62 -20 -11 0 2 23 39 65 38 43 45 47 77 42
44 -6 131 -45 138 -62 8 -23 53 29 53 62 0 26 -5 30 -42 40 -53 14 -71 0 -29
-21 17 -9 31 -19 31 -22 0 -9 -91 6 -112 17 -25 13 -22 21 10 40 15 8 61 43
102 76 55 45 82 75 103 115 15 30 27 62 27 71 0 9 5 19 10 22 16 10 12 104 -9
201 -20 89 -39 151 -40 125z"/>
<path d="M567 1683 c-4 -3 -7 -11 -7 -16 0 -6 3 -7 7 -4 3 4 15 0 25 -10 15
-13 18 -14 18 -2 0 26 -29 47 -43 32z"/>
<path d="M560 1620 c0 -6 10 -15 23 -20 36 -14 78 -46 71 -53 -13 -13 18 -38
39 -31 11 3 23 1 27 -5 5 -8 14 -5 31 9 l24 22 -22 -5 c-13 -3 -23 -1 -23 4 0
5 -9 9 -20 9 -11 0 -20 -5 -20 -11 0 -6 -6 -9 -12 -6 -7 2 -12 10 -10 17 4 16
-48 71 -59 64 -5 -3 -18 0 -29 6 -14 7 -20 7 -20 0z"/>
<path d="M706 1605 c-24 -25 -20 -31 20 -27 26 3 34 9 32 21 -4 22 -32 25 -52
6z"/>
<path d="M680 1484 c0 -11 3 -24 8 -28 4 -4 7 -13 7 -18 0 -6 6 -13 13 -16 17
-5 6 46 -14 68 -12 12 -14 12 -14 -6z"/>
<path d="M880 1355 c0 -20 4 -26 18 -23 9 2 17 12 17 23 0 11 -8 21 -17 23
-14 3 -18 -3 -18 -23z"/>
<path d="M748 1345 c6 -11 28 -36 48 -55 39 -36 23 -11 -29 45 -18 18 -25 22
-19 10z"/>
<path d="M751 1217 c-10 -13 -8 -19 10 -36 28 -26 36 -26 44 -2 4 13 12 18 23
14 15 -5 15 -4 2 10 -23 24 -64 31 -79 14z"/>
<path d="M3590 1041 c0 -5 -7 -17 -16 -25 -16 -16 -8 -21 20 -10 17 7 22 44 6
44 -5 0 -10 -4 -10 -9z"/>
<path d="M1320 735 c0 -16 -15 -42 -39 -68 -53 -57 -60 -89 -28 -121 17 -17
32 -23 46 -19 12 3 21 8 21 12 0 13 -24 31 -42 31 -11 0 -18 7 -18 19 0 25 49
81 56 64 10 -22 34 -1 34 30 l0 30 30 -31 c26 -28 33 -30 54 -20 31 13 39 33
25 59 -13 25 -49 39 -100 39 -35 0 -39 -3 -39 -25z m84 -17 c9 -12 16 -31 16
-42 0 -18 -2 -18 -25 4 -25 23 -34 60 -16 60 6 0 17 -10 25 -22z"/>
<path d="M2999 623 c14 -28 14 -73 0 -73 -6 0 -13 9 -16 20 -8 30 -21 24 -15
-7 l5 -26 -56 7 c-151 17 -291 -122 -234 -233 24 -48 117 -48 132 -1 7 21 -9
50 -26 50 -5 0 -14 -12 -19 -26 -13 -34 -50 -29 -68 9 -11 23 -11 34 -2 58 17
40 57 82 100 104 39 20 158 23 206 5 l29 -12 -30 -15 c-35 -19 -45 -31 -45
-58 0 -18 2 -17 13 4 6 13 22 31 35 39 21 14 22 13 22 -15 0 -29 -19 -55 -50
-66 -10 -4 -8 -6 7 -6 28 -1 63 47 63 87 0 28 2 29 54 35 50 5 123 33 113 43
-2 2 -20 -3 -40 -11 -47 -19 -121 -20 -137 0 -6 8 -9 23 -5 34 4 13 -3 28 -20
48 -21 22 -24 23 -16 6z"/>
<path d="M1645 510 c-3 -5 -1 -10 4 -10 19 0 12 -28 -14 -56 -14 -15 -25 -31
-25 -35 0 -5 -9 -9 -20 -9 -11 0 -20 -4 -20 -10 0 -5 9 -10 20 -10 14 0 30
-16 49 -47 45 -75 66 -93 106 -93 39 0 44 13 19 49 -15 21 -18 21 -26 7 -12
-22 -28 -20 -28 4 0 11 -5 20 -11 20 -5 0 -7 5 -4 11 4 6 13 8 21 5 8 -3 14
-1 14 5 0 5 -13 15 -30 20 -16 6 -27 15 -24 20 3 5 -7 9 -21 9 l-27 0 27 45
c16 29 24 53 20 65 -7 22 -20 26 -30 10z"/>
<path d="M1798 412 c-10 -4 14 -7 52 -8 95 0 124 -21 128 -91 3 -57 -14 -85
-48 -76 -11 3 -20 8 -20 12 0 4 -6 16 -14 26 -13 18 -14 18 -26 -4 -10 -20 -9
-26 11 -47 29 -31 80 -32 109 -2 21 23 23 29 21 68 -5 62 -21 89 -68 110 -45
20 -111 25 -145 12z"/>
<path d="M2080 220 c0 -5 4 -10 9 -10 6 0 13 5 16 10 3 6 -1 10 -9 10 -9 0
-16 -4 -16 -10z"/>
</g>
</svg>
